# xmcd
# 
# Track frame offsets:
#     182
#     8915
#     25340
#     33240
#     48330
#     59432
#     73380
#     84687
#     94312
#     112287
#     122432
#     136877
#     148685
#     162495
#     175185
#     187642
#     209612
#     229210
# 
# Disc length: 3376
# 
# Revision: 7
# Processed by: cddbd v1.5.2PL0 Copyright (c) Steve Scherf et al.
# Submitted via: fre:ac v1.0.31
# 
DISCID=060d2e12
DTITLE=Dr. Demento - Dr. Demento's  25th Anniversary Collection - More Of The Greatest Novelty Records Of All Time Disc 2 Disc 2
DYEAR=1995
DGENRE=Novelty
TTITLE0=They Might Be Giants - Particle Man
TTITLE1=Christine Lavin - Sensitive New Age Guys
TTITLE2=Tom Lehrer With Orchestra - The Hunting Song
TTITLE3=Weird Al Yankovic - Achy Breaky Song
TTITLE4=Clean Living - In Heaven There Is No Beer
TTITLE5=Barnes And Barnes With Friends - I Gotta Get A Fake I.D.
TTITLE6=Meri Wilson - Peter The Meter Reader
TTITLE7=Benny Bell - Everybody Wants My Fanny
TTITLE8=John Forster - Entering Marion
TTITLE9=Julie Brown - Cause I'm A Blonde
TTITLE10=Detergents - Leader Of The Laundromat
TTITLE11=Art Carney - Song Of The Sewer
TTITLE12=Larry Verne - Mister Custer
TTITLE13=Da Yoopers - Second Week Of Deer Camp
TTITLE14=Buoys - Timothy
TTITLE15=Bobby Pickett And Peter Ferrara - Stardreck
TTITLE16=Green Jelly - Three Little Pigs
TTITLE17=Utah Phillips - Moose Turd Pie
EXTD=
EXTT0=
EXTT1=
EXTT2=
EXTT3=
EXTT4=
EXTT5=
EXTT6=
EXTT7=
EXTT8=
EXTT9=
EXTT10=
EXTT11=
EXTT12=
EXTT13=
EXTT14=
EXTT15=
EXTT16=
EXTT17=
PLAYORDER=
